<svg width="1280" height="360" viewBox="0 0 1280 360" fill="none" xmlns="http://www.w3.org/2000/svg">
  <defs>
    <linearGradient id="bg" x1="0" y1="0" x2="1280" y2="360" gradientUnits="userSpaceOnUse">
      <stop stop-color="#12091f"/>
      <stop offset="0.5" stop-color="#2a0f4b"/>
      <stop offset="1" stop-color="#4b1d7d"/>
    </linearGradient>
    <linearGradient id="lineA" x1="0" y1="0" x2="1280" y2="0" gradientUnits="userSpaceOnUse">
      <stop stop-color="#8f5cff"/>
      <stop offset="1" stop-color="#d2b5ff"/>
    </linearGradient>
    <filter id="blur" x="-20%" y="-20%" width="140%" height="140%" color-interpolation-filters="sRGB">
      <feGaussianBlur stdDeviation="35"/>
    </filter>
  </defs>

  <rect width="1280" height="360" rx="20" fill="url(#bg)"/>

  <circle cx="180" cy="70" r="90" fill="#6f3de8" opacity="0.35" filter="url(#blur)"/>
  <circle cx="1080" cy="320" r="140" fill="#a86dff" opacity="0.28" filter="url(#blur)"/>
  <circle cx="1220" cy="50" r="75" fill="#9f5fff" opacity="0.2" filter="url(#blur)"/>

  <path d="M0 245C120 200 240 290 360 245C480 200 600 290 720 245C840 200 960 290 1080 245C1160 215 1220 215 1280 245" stroke="url(#lineA)" stroke-opacity="0.55" stroke-width="2"/>
  <path d="M0 280C120 235 240 325 360 280C480 235 600 325 720 280C840 235 960 325 1080 280C1160 250 1220 250 1280 280" stroke="url(#lineA)" stroke-opacity="0.35" stroke-width="2"/>

  <text x="80" y="150" fill="#F5EDFF" font-family="'Segoe UI', Arial, sans-serif" font-size="54" font-weight="700" letter-spacing="1">
    N0Cry
  </text>
  <text x="82" y="198" fill="#D6BEFF" font-family="'Segoe UI', Arial, sans-serif" font-size="24" font-weight="500">
    Building, learning, and shipping practical software
  </text>
  <text x="82" y="235" fill="#C9A7FF" font-family="'Consolas', 'Courier New', monospace" font-size="18">
    profile README • gradient purple edition
  </text>

  <rect x="80" y="265" width="210" height="42" rx="21" fill="#6f3de8" fill-opacity="0.3" stroke="#b894ff" stroke-opacity="0.7"/>
  <text x="110" y="292" fill="#F1E8FF" font-family="'Segoe UI', Arial, sans-serif" font-size="17" font-weight="600">
    open to collaboration
  </text>

  <circle cx="1130" cy="112" r="66" fill="none" stroke="#b894ff" stroke-opacity="0.55" stroke-width="2"/>
  <circle cx="1130" cy="112" r="38" fill="none" stroke="#8f5cff" stroke-opacity="0.75" stroke-width="2"/>
</svg>
